<!DOCTYPE svg PUBLIC "-//W3C//DTD SVG 20010904//EN" "http://www.w3.org/TR/2001/REC-SVG-20010904/DTD/svg10.dtd">
<svg version="1.0" xmlns="http://www.w3.org/2000/svg" width="1600px" height="335px" viewBox="0 0 16000 3350" preserveAspectRatio="xMidYMid meet">
<g id="layer101" fill="#0c2e4f" stroke="none">
 <path d="M0 1675 l0 -1675 8000 0 8000 0 0 1675 0 1675 -8000 0 -8000 0 0 -1675z"/>
 </g>
<g id="layer102" fill="#bb8720" stroke="none">
 <path d="M0 1675 l0 -1675 8000 0 8000 0 0 1675 0 1675 -8000 0 -8000 0 0 -1675z m6711 925 c30 -5 71 -17 92 -27 37 -16 38 -17 35 -67 -2 -39 -6 -50 -18 -48 -8 2 -52 13 -96 25 -80 21 -83 21 -137 4 -103 -33 -131 -94 -125 -277 3 -101 6 -121 29 -165 41 -78 120 -113 193 -85 35 13 56 59 56 126 l0 57 31 -7 c17 -3 42 -6 55 -6 24 0 24 -2 24 -92 0 -51 -3 -109 -6 -128 l-6 -35 -151 0 c-130 0 -158 3 -191 19 -91 46 -148 139 -167 274 -26 179 18 340 108 399 58 38 171 52 274 33z m1710 -9 c16 -18 96 -354 105 -446 4 -36 10 -62 15 -58 4 4 15 51 23 103 16 98 75 343 95 393 10 26 12 27 68 21 32 -4 63 -12 70 -18 33 -32 219 -693 200 -712 -3 -3 -34 -3 -70 1 l-64 7 -16 97 c-29 174 -98 481 -109 481 -11 0 -42 -137 -88 -390 -12 -63 -23 -128 -27 -144 l-5 -29 -70 5 c-39 3 -74 11 -78 18 -4 6 -15 57 -25 113 -19 113 -72 382 -81 410 -3 9 -8 17 -12 17 -4 0 -22 -66 -40 -148 -18 -81 -39 -174 -47 -207 -7 -33 -19 -97 -26 -143 -7 -53 -17 -86 -25 -89 -8 -3 -39 -2 -69 2 -40 5 -55 11 -55 22 0 46 89 388 145 558 58 173 45 157 117 149 35 -3 66 -9 69 -13z m1075 -12 c140 -67 215 -244 186 -436 -19 -120 -69 -199 -157 -246 -33 -18 -57 -22 -135 -22 -80 0 -102 4 -140 23 -57 30 -95 66 -127 119 -77 131 -70 356 15 478 29 42 116 101 161 109 57 10 150 -2 197 -25z m-2381 -114 l0 -130 85 -6 c47 -3 103 -14 125 -23 60 -26 113 -83 130 -140 36 -122 3 -215 -97 -268 -39 -21 -57 -23 -173 -23 -71 0 -147 4 -167 8 l-38 8 0 355 0 355 68 -3 67 -3 0 -130z m726 -105 c-2 -129 0 -268 4 -307 l7 -73 99 0 99 0 0 -50 0 -50 -270 0 -270 0 0 50 0 50 101 0 100 0 -1 303 c-1 166 -1 306 -1 310 1 4 31 7 69 5 l67 -3 -4 -235z"/>
 <path d="M9306 2505 c-68 -36 -99 -117 -99 -260 -1 -187 61 -285 178 -285 85 0 134 43 154 138 25 120 6 278 -42 350 -43 65 -127 90 -191 57z"/>
 <path d="M7138 2243 c-26 -7 -31 -40 -26 -160 4 -74 9 -108 19 -114 8 -5 40 -9 73 -9 53 0 61 3 92 34 24 24 34 44 35 68 3 92 -14 139 -59 162 -31 16 -108 27 -134 19z"/>
 </g>
<g id="layer103" fill="#fffffe" stroke="none">
 <path d="M0 1675 l0 -1675 8000 0 8000 0 0 1675 0 1675 -8000 0 -8000 0 0 -1675z m6408 1378 c2 -9 -9 -13 -38 -13 -37 0 -41 -2 -38 -22 2 -17 11 -24 31 -26 38 -5 36 -32 -4 -32 -26 0 -30 -3 -27 -22 2 -19 10 -24 41 -26 57 -5 44 -22 -18 -22 l-55 0 0 83 c0 46 3 87 7 91 12 11 96 2 101 -11z m172 -44 c0 -27 3 -49 8 -49 4 0 27 25 50 55 24 30 47 55 53 55 5 0 9 -40 9 -90 0 -72 -3 -90 -15 -90 -10 0 -15 15 -17 57 l-3 57 -44 -58 c-24 -31 -49 -55 -55 -53 -12 4 -21 139 -12 164 11 28 26 1 26 -48z m391 51 c13 -8 19 -21 19 -45 0 -31 -3 -35 -25 -35 -14 0 -25 5 -25 10 0 6 5 10 10 10 6 0 10 9 10 20 0 16 -7 20 -34 20 -37 0 -51 -12 -61 -52 -5 -21 -1 -33 19 -53 22 -22 32 -25 61 -19 23 4 35 2 35 -5 0 -12 -39 -30 -55 -26 -5 2 -22 6 -37 9 -30 7 -58 50 -58 89 0 37 51 87 90 87 17 0 40 -5 51 -10z m262 -5 c-1 -5 -17 -12 -35 -15 l-33 -5 -3 -72 c-2 -56 -6 -73 -17 -73 -12 0 -15 17 -15 83 0 46 3 87 7 91 11 11 98 3 96 -9z m167 -81 c0 -68 -3 -84 -15 -84 -12 0 -15 16 -15 83 0 46 3 87 6 90 17 16 24 -11 24 -89z m232 79 c10 -9 18 -29 18 -44 0 -23 -7 -32 -37 -46 -47 -22 -51 -48 -8 -48 43 0 42 -19 0 -23 -72 -6 -90 58 -25 90 49 25 48 54 -2 51 -40 -3 -49 9 -20 26 25 15 53 13 74 -6z m178 -7 c0 -45 10 -56 51 -56 38 0 39 1 39 34 0 35 13 55 25 36 5 -9 8 -80 6 -147 -2 -40 -31 -28 -31 12 0 35 0 35 -45 35 -45 0 -45 0 -45 -36 0 -24 -4 -34 -12 -32 -13 5 -24 138 -14 165 9 22 26 15 26 -11z m541 14 c33 -18 22 -31 -23 -24 -48 8 -68 -10 -68 -61 0 -45 28 -68 74 -60 43 9 50 -10 10 -26 -35 -13 -90 5 -105 34 -7 11 -12 39 -12 61 0 65 67 106 124 76z m292 -10 c31 -24 43 -74 28 -113 -14 -37 -69 -61 -108 -46 -48 18 -63 39 -63 84 0 81 82 123 143 75z m288 1 c19 -16 24 -30 27 -90 4 -59 2 -71 -11 -71 -11 0 -18 14 -22 44 -4 25 -5 48 -2 53 11 19 -13 53 -37 53 -33 0 -46 -26 -46 -94 0 -45 -3 -56 -16 -56 -26 0 -16 144 11 164 27 21 68 20 96 -3z m199 -16 c0 -39 20 -40 52 0 38 46 62 33 27 -15 -22 -29 -23 -32 -6 -41 20 -11 23 -59 5 -77 -7 -7 -34 -12 -60 -12 l-48 0 0 83 c0 46 3 87 6 90 12 11 24 -3 24 -28z m322 18 c35 -32 16 -81 -40 -98 -37 -11 -24 -41 17 -37 44 3 37 -22 -8 -26 -69 -7 -84 59 -21 90 20 10 35 25 35 35 0 14 -9 18 -35 19 -53 1 -57 3 -36 19 26 20 65 19 88 -2z m261 2 c-1 -5 -19 -12 -40 -15 -35 -5 -39 -10 -34 -39 0 -5 12 -11 26 -13 38 -4 35 -22 -3 -26 -28 -3 -33 -7 -30 -25 2 -16 11 -23 33 -25 57 -6 60 -16 5 -22 -30 -3 -58 -4 -62 -2 -10 4 -10 166 -1 176 11 11 108 2 106 -9z m-3002 -449 c77 -14 118 -29 131 -50 11 -16 10 -104 -1 -111 -5 -3 -33 4 -63 16 -36 15 -76 22 -128 23 -64 1 -80 -3 -109 -23 -56 -40 -76 -98 -76 -221 0 -203 71 -300 200 -276 45 9 65 46 65 120 0 30 5 58 11 62 6 4 35 1 65 -6 l53 -13 -5 -121 c-3 -67 -7 -125 -9 -131 -1 -6 -62 -10 -156 -10 -152 0 -155 0 -208 30 -100 55 -141 132 -162 301 -10 85 -10 110 4 174 21 99 30 121 68 164 40 46 60 57 129 72 72 16 100 16 191 0z m1681 -1 c37 -6 38 -8 57 -73 31 -111 41 -152 61 -260 24 -129 35 -150 44 -91 19 121 93 421 106 429 10 6 138 -4 144 -11 5 -6 70 -192 94 -269 53 -171 115 -451 102 -464 -5 -5 -38 -5 -73 -2 -76 9 -67 -7 -102 191 -43 240 -84 399 -96 367 -10 -25 -77 -374 -85 -442 -11 -90 -13 -92 -102 -84 -42 4 -80 11 -84 17 -3 6 -9 35 -13 66 -7 62 -47 274 -73 389 -14 63 -17 70 -25 50 -15 -36 -70 -291 -114 -525 -6 -37 -17 -39 -108 -26 l-47 6 6 36 c14 86 81 362 96 396 5 11 14 40 20 65 14 54 66 203 80 231 11 20 9 20 112 4z m1053 0 c160 -42 249 -181 249 -390 0 -121 -25 -194 -88 -263 -62 -67 -113 -87 -221 -87 -78 0 -97 4 -140 27 -67 35 -118 90 -152 163 -26 56 -28 69 -28 185 0 111 3 131 25 180 46 105 110 163 203 186 70 17 83 17 152 -1z m-2324 -136 l-2 -126 83 -5 c95 -6 158 -29 206 -78 46 -46 62 -91 62 -175 0 -112 -21 -150 -110 -196 -41 -22 -56 -24 -190 -23 -87 0 -156 5 -172 12 l-28 12 0 355 0 356 76 -3 76 -3 -1 -126z m731 -176 l3 -308 70 -2 c39 -1 85 -2 103 -2 l33 -1 -3 -52 -3 -53 -275 0 -275 0 -3 52 -3 52 98 3 98 3 2 300 c1 165 2 303 2 308 1 4 35 7 76 7 l75 0 2 -307z m260 -612 c38 0 52 -5 77 -30 16 -16 44 -32 60 -36 38 -8 61 -39 61 -81 0 -23 -15 -50 -60 -105 -56 -68 -120 -166 -120 -183 0 -4 15 9 34 28 18 20 38 36 43 36 5 0 20 20 33 44 16 31 36 51 66 68 29 15 55 40 74 70 36 60 84 85 132 72 39 -11 42 -22 57 -179 17 -165 59 -568 70 -670 17 -148 14 -245 -9 -283 -27 -44 -61 -59 -103 -44 -17 6 -71 25 -118 41 -48 17 -118 34 -156 37 l-70 7 -6 -39 c-4 -22 -7 -63 -7 -92 0 -46 -4 -57 -34 -90 l-34 -37 -99 0 c-108 0 -141 13 -164 68 -6 15 -25 37 -40 48 -36 25 -59 68 -59 109 0 25 -4 30 -17 26 -10 -2 -38 -8 -63 -11 -25 -4 -58 -13 -75 -20 -56 -24 -146 -55 -161 -55 -9 0 -31 15 -50 34 l-34 34 0 129 c0 70 5 159 10 196 6 38 24 200 40 360 47 460 39 422 96 433 43 8 93 -22 120 -72 11 -21 41 -50 72 -70 30 -20 58 -47 65 -64 7 -16 34 -47 60 -70 27 -24 47 -51 48 -63 0 -13 3 -16 6 -9 3 8 -1 26 -8 40 -18 36 -80 136 -88 142 -26 20 -82 103 -87 129 -6 26 -2 37 22 62 15 16 36 29 47 29 10 0 33 14 50 31 28 28 35 31 79 27 27 -3 51 -1 54 4 4 5 35 7 73 4 36 -3 87 -5 113 -5z"/>
 <path d="M8547 3022 c-21 -23 -22 -61 -1 -90 18 -26 41 -28 72 -6 30 20 31 88 3 104 -29 15 -56 12 -74 -8z"/>
 <path d="M9137 2963 c-10 -10 -8 -41 3 -48 17 -11 50 5 50 25 0 23 -37 40 -53 23z"/>
 <path d="M9292 2484 c-18 -14 -39 -39 -48 -56 -22 -42 -34 -182 -23 -267 16 -132 70 -191 172 -191 51 0 60 3 91 35 48 47 59 96 54 235 -3 100 -7 122 -31 172 -34 69 -75 98 -138 98 -32 0 -53 -7 -77 -26z"/>
 <path d="M7128 2234 c-9 -9 -11 -225 -2 -248 8 -22 121 -22 152 0 29 20 52 66 52 103 0 44 -27 103 -56 125 -27 19 -133 34 -146 20z"/>
 <path d="M7961 1636 c-7 -8 -11 -37 -9 -68 3 -47 1 -53 -17 -53 -16 0 -22 10 -30 47 -12 56 -26 72 -53 64 -36 -12 -32 -35 19 -116 50 -78 57 -110 24 -110 -8 0 -40 39 -71 86 -40 61 -60 84 -70 80 -9 -3 -18 -6 -20 -6 -2 0 -4 -9 -4 -21 0 -17 36 -68 101 -141 31 -36 79 -141 79 -175 0 -24 -8 -41 -27 -59 -27 -25 -28 -31 -39 -191 -12 -167 -21 -196 -51 -171 -8 7 -13 36 -13 85 0 73 -19 143 -39 143 -6 0 -11 -3 -11 -7 0 -5 -9 -78 -20 -163 -27 -211 -28 -200 19 -200 27 0 41 -5 45 -17 10 -25 -2 -30 -88 -41 -47 -6 -98 -20 -126 -35 -71 -37 -76 -30 -61 102 9 82 9 122 1 152 -11 40 -49 89 -69 89 -5 0 -12 -26 -16 -57 -3 -32 -13 -113 -21 -181 -20 -168 -8 -232 44 -232 16 0 32 4 38 9 5 5 43 20 84 34 150 50 260 56 292 16 11 -12 18 -34 16 -48 -2 -21 -9 -27 -35 -29 -18 -2 -33 -7 -33 -11 0 -10 25 -32 53 -46 11 -5 24 -23 28 -38 4 -16 13 -35 19 -42 31 -37 144 -40 190 -5 21 16 24 29 30 113 4 55 12 102 19 111 10 11 31 16 73 16 67 0 234 -39 291 -69 92 -47 107 1 83 263 -9 104 -19 192 -21 194 -8 8 -57 -33 -72 -62 -18 -34 -20 -145 -5 -229 8 -38 7 -51 -5 -62 -13 -13 -20 -12 -60 12 -34 19 -65 28 -125 33 -81 7 -107 22 -86 47 6 7 28 13 50 13 40 0 40 0 35 33 -3 17 -9 59 -12 92 -6 54 -15 115 -31 213 -12 78 -46 5 -49 -106 -2 -87 -13 -114 -38 -93 -10 8 -17 48 -22 134 -10 175 -17 208 -48 239 -15 15 -27 38 -27 51 0 40 56 138 125 221 36 43 65 85 65 92 0 7 -9 18 -20 24 -17 9 -24 5 -51 -32 -17 -24 -42 -62 -56 -85 -24 -42 -54 -56 -68 -33 -4 6 16 47 44 91 28 44 51 86 51 93 0 21 -25 37 -46 29 -26 -9 -34 -23 -34 -59 0 -40 -25 -64 -45 -43 -10 10 -11 25 -6 55 4 23 4 49 -1 58 -11 20 -51 21 -67 2z"/>
 <path d="M7493 1512 c-14 -9 -45 -296 -31 -301 5 -1 29 -18 54 -37 24 -19 44 -33 44 -31 0 1 7 61 15 132 14 129 14 130 -8 174 -24 48 -55 75 -74 63z"/>
 <path d="M8445 1494 c-44 -44 -48 -69 -34 -211 6 -73 16 -136 21 -139 4 -3 8 -1 8 5 0 6 21 22 46 37 l46 27 -6 76 c-3 42 -11 109 -18 149 -9 58 -14 72 -29 72 -10 0 -25 -7 -34 -16z"/>
 <path d="M7631 1308 c-6 -40 -14 -102 -17 -138 l-6 -66 35 -27 36 -27 6 47 c4 27 11 72 16 102 15 88 11 117 -17 150 -14 17 -29 31 -34 31 -4 0 -12 -33 -19 -72z"/>
 <path d="M8319 1367 c-8 -7 -23 -24 -32 -38 -16 -23 -16 -34 -2 -139 8 -63 15 -117 15 -122 0 -15 18 -8 46 15 l27 24 -12 124 c-15 141 -19 153 -42 136z"/>
 <path d="M7755 1204 c-3 -27 -8 -61 -10 -76 -3 -20 2 -30 21 -43 14 -9 28 -14 31 -12 3 3 6 35 6 71 2 55 -1 69 -20 87 l-21 22 -7 -49z"/>
 <path d="M8197 1226 c-19 -29 -24 -141 -6 -151 5 -4 19 1 31 12 18 16 19 26 14 76 -8 81 -18 96 -39 63z"/>
 <path d="M7446 1133 c-12 -30 -19 -163 -9 -163 5 0 28 -16 50 -35 l42 -35 6 53 c10 81 -18 162 -65 187 -14 7 -19 6 -24 -7z"/>
 <path d="M8496 1125 c-35 -32 -46 -65 -46 -133 0 -60 12 -94 25 -73 3 7 23 22 44 35 l37 24 -7 68 c-5 38 -8 77 -8 87 -1 23 -13 21 -45 -8z"/>
 <path d="M7595 993 c-3 -26 -8 -60 -10 -75 -4 -22 2 -33 29 -53 18 -14 36 -25 39 -25 11 0 8 91 -3 131 -6 20 -19 44 -29 53 -19 17 -20 16 -26 -31z"/>
 <path d="M8351 1011 c-18 -32 -31 -108 -25 -140 7 -32 13 -32 58 2 16 12 18 22 11 85 -7 74 -23 93 -44 53z"/>
 <path d="M7566 778 c-3 -24 -9 -67 -12 -97 l-7 -53 34 7 c19 4 38 11 43 15 15 15 1 127 -19 150 -26 29 -32 25 -39 -22z"/>
 <path d="M8383 801 c-21 -23 -33 -63 -33 -110 0 -36 10 -47 49 -56 l34 -7 -7 76 c-4 42 -10 86 -15 98 l-8 21 -20 -22z"/>
 </g>

</svg>